<?xml version="1.0" encoding="utf-8"?>
<!-- Generator: Adobe Illustrator 23.0.5, SVG Export Plug-In . SVG Version: 6.00 Build 0)  -->
<svg version="1.1" id="Layer_1" xmlns="http://www.w3.org/2000/svg" xmlns:xlink="http://www.w3.org/1999/xlink" x="0px" y="0px"
	 viewBox="0 0 36.4 36.4" style="enable-background:new 0 0 36.4 36.4;" xml:space="preserve">
<style type="text/css">
	.st0{fill-rule:evenodd;clip-rule:evenodd;fill:#FFFFFF;}
</style>
<g>
	<path class="st0" d="M16,25.9l7.5-7.5c0.1-0.1,0.1-0.2,0-0.3L16,10.5c-0.1-0.1-0.2-0.1-0.3,0l-1.7,1.6L20,18c0.1,0.1,0.1,0.2,0,0.3
		l-5.9,5.8l1.7,1.7C15.8,25.9,16,25.9,16,25.9 M18.2,36.4c5,0,9.6-2,12.8-5.3c3.3-3.3,5.3-7.8,5.3-12.8c0-5-2-9.6-5.3-12.9
		C27.8,2,23.2,0,18.2,0c-5,0-9.6,2-12.9,5.3C2,8.6,0,13.2,0,18.2c0,5,2,9.6,5.3,12.8C8.6,34.3,13.2,36.4,18.2,36.4 M28.3,28.3
		c-2.6,2.6-6.2,4.2-10.1,4.2c-4,0-7.5-1.6-10.1-4.2c-2.6-2.6-4.2-6.2-4.2-10.1c0-3.9,1.6-7.5,4.2-10.1c2.6-2.6,6.2-4.2,10.1-4.2
		c3.9,0,7.5,1.6,10.1,4.2c2.6,2.6,4.2,6.2,4.2,10.1C32.5,22.1,30.9,25.7,28.3,28.3"/>
</g>
</svg>
