<?xml version="1.0" encoding="utf-8"?>
<!-- Generator: Adobe Illustrator 23.0.5, SVG Export Plug-In . SVG Version: 6.00 Build 0)  -->
<svg version="1.1" id="Layer_1" xmlns="http://www.w3.org/2000/svg" xmlns:xlink="http://www.w3.org/1999/xlink" x="0px" y="0px"
	 viewBox="0 0 66 66" style="enable-background:new 0 0 66 66;" xml:space="preserve">
<style type="text/css">
	.st0{clip-path:url(#SVGID_2_);fill-rule:evenodd;clip-rule:evenodd;}
	
		.st1{clip-path:url(#SVGID_2_);fill:none;stroke:#000000;stroke-width:3;stroke-linecap:round;stroke-linejoin:round;stroke-miterlimit:10;}
</style>
<g>
	<defs>
		<rect id="SVGID_1_" y="0" width="66" height="66"/>
	</defs>
	<clipPath id="SVGID_2_">
		<use xlink:href="#SVGID_1_"  style="overflow:visible;"/>
	</clipPath>
	<path class="st0" d="M19.3,64.5l-17.4,0c-0.2,0-0.3-0.1-0.3-0.3V46.7c0-0.2,0.1-0.3,0.3-0.3h2.2l0,13.8l18.8-18.8
		c0.5-0.5,1.4-0.5,2,0c0.5,0.5,0.5,1.4,0,1.9L6.2,61.9h13.4l0,2.2C19.6,64.3,19.5,64.5,19.3,64.5"/>
	<path class="st1" d="M19.3,64.5l-17.4,0c-0.2,0-0.3-0.1-0.3-0.3V46.7c0-0.2,0.1-0.3,0.3-0.3h2.2l0,13.8l18.8-18.8
		c0.5-0.5,1.4-0.5,2,0c0.5,0.5,0.5,1.4,0,1.9L6.2,61.9h13.4l0,2.2C19.6,64.3,19.5,64.5,19.3,64.5z"/>
	<path class="st0" d="M64.5,19.3l0-17.4c0-0.2-0.1-0.3-0.3-0.3H46.7c-0.2,0-0.3,0.1-0.3,0.3v2.2l13.7,0L41.3,22.9
		c-0.5,0.5-0.5,1.4,0,2c0.5,0.5,1.4,0.5,1.9,0L61.9,6.2v13.4h2.2C64.3,19.6,64.5,19.5,64.5,19.3"/>
	<path class="st1" d="M64.5,19.3l0-17.4c0-0.2-0.1-0.3-0.3-0.3H46.7c-0.2,0-0.3,0.1-0.3,0.3v2.2l13.7,0L41.3,22.9
		c-0.5,0.5-0.5,1.4,0,2c0.5,0.5,1.4,0.5,1.9,0L61.9,6.2v13.4h2.2C64.3,19.6,64.5,19.5,64.5,19.3z"/>
</g>
</svg>
