<?xml version="1.0" encoding="utf-8"?>
<!-- Generator: Adobe Illustrator 23.0.5, SVG Export Plug-In . SVG Version: 6.00 Build 0)  -->
<svg version="1.1" id="Layer_1" xmlns="http://www.w3.org/2000/svg" xmlns:xlink="http://www.w3.org/1999/xlink" x="0px" y="0px"
	 viewBox="0 0 232.9 290.9" style="enable-background:new 0 0 232.9 290.9;" xml:space="preserve">
<style type="text/css">
	
		.st0{clip-path:url(#SVGID_2_);fill:none;stroke:#000000;stroke-width:9.091;stroke-linecap:round;stroke-linejoin:round;stroke-miterlimit:10;}
</style>
<g>
	<defs>
		<rect id="SVGID_1_" width="232.9" height="290.9"/>
	</defs>
	<clipPath id="SVGID_2_">
		<use xlink:href="#SVGID_1_"  style="overflow:visible;"/>
	</clipPath>
	<path class="st0" d="M135.3,267.6c0,10.4-8.4,18.8-18.8,18.8c-10.4,0-18.8-8.4-18.8-18.8"/>
	<path class="st0" d="M147.3,207.5c3.6-14,11.4-26.9,22-37.4c13.9-13.6,22.4-32.6,22.4-53.6c0-41.5-33.6-75.3-75.2-75.3
		c-41.7,0-75.3,33.7-75.3,75.3c0,21.1,8.6,40,22.5,53.7c10.6,10.4,18.4,23.2,22,37.3"/>
	<path class="st0" d="M151.4,234.3v19.7c0,7.5-6.1,13.6-13.6,13.6H95.2c-7.5,0-13.6-6.1-13.6-13.6v-19.7c0-5,4.1-9.1,9.1-9.1h51.6
		C147.3,225.2,151.4,229.2,151.4,234.3z"/>
	<line class="st0" x1="228.4" y1="116.4" x2="210" y2="116.4"/>
	<line class="st0" x1="213.4" y1="60.5" x2="197.5" y2="69.7"/>
	<line class="st0" x1="172.4" y1="19.5" x2="163.2" y2="35.4"/>
	<line class="st0" x1="116.4" y1="4.5" x2="116.4" y2="22.9"/>
	<line class="st0" x1="60.5" y1="19.5" x2="69.7" y2="35.4"/>
	<line class="st0" x1="19.5" y1="60.5" x2="35.4" y2="69.7"/>
	<line class="st0" x1="4.5" y1="116.4" x2="22.9" y2="116.4"/>
	<line class="st0" x1="19.5" y1="172.4" x2="35.4" y2="163.2"/>
	<line class="st0" x1="66.3" y1="203.3" x2="58.7" y2="216.5"/>
	<line class="st0" x1="174.2" y1="216.5" x2="166.6" y2="203.3"/>
	<line class="st0" x1="213.4" y1="172.4" x2="197.5" y2="163.2"/>
	<line class="st0" x1="116.4" y1="207" x2="116.4" y2="125.9"/>
	<path class="st0" d="M140.4,122.4l-6,6c-3.3,3.3-8.7,3.3-12,0l0,0c-3.3-3.3-8.7-3.3-12,0c-3.3,3.3-8.7,3.3-12,0l-6-6"/>
</g>
</svg>
