<?xml version="1.0" encoding="utf-8"?>
<!-- Generator: Adobe Illustrator 23.0.5, SVG Export Plug-In . SVG Version: 6.00 Build 0)  -->
<svg version="1.1" id="Layer_1" xmlns="http://www.w3.org/2000/svg" xmlns:xlink="http://www.w3.org/1999/xlink" x="0px" y="0px"
	 viewBox="0 0 19.5 19.5" style="enable-background:new 0 0 19.5 19.5;" xml:space="preserve">
<style type="text/css">
	.st0{fill:#FFFFFF;}
</style>
<g>
	<path class="st0" d="M1.8,18.8C1.5,19,1,19,0.7,18.7c-0.3-0.3-0.3-0.7,0-1l17-17c0.3-0.3,0.8-0.3,1.1,0c0.3,0.3,0.3,0.7,0,1
		L1.8,18.8z M6.3,19.3c-0.3,0.3-0.8,0.3-1.1,0c-0.3-0.3-0.3-0.7,0-1l13-13c0.3-0.3,0.8-0.3,1.1,0c0.3,0.3,0.3,0.7,0,1L6.3,19.3z
		 M11.3,19.3c-0.3,0.3-0.8,0.3-1.1,0c-0.3-0.3-0.3-0.7,0-1l8-8c0.3-0.3,0.8-0.3,1.1,0c0.3,0.3,0.3,0.7,0,1L11.3,19.3z M16.8,18.8
		c-0.3,0.3-0.8,0.3-1.1,0c-0.3-0.3-0.3-0.7,0-1l2-2c0.3-0.3,0.8-0.3,1.1,0c0.3,0.3,0.3,0.7,0,1L16.8,18.8z M1.3,14.3
		c-0.3,0.3-0.8,0.3-1.1,0c-0.3-0.3-0.3-0.7,0-1l13-13c0.3-0.3,0.8-0.3,1.1,0c0.3,0.3,0.3,0.7,0,1L1.3,14.3z M1.3,9.3
		C1,9.5,0.5,9.5,0.2,9.2c-0.3-0.3-0.3-0.7,0-1l8-8c0.3-0.3,0.8-0.3,1.1,0c0.3,0.3,0.3,0.7,0,1L1.3,9.3z M1.8,3.8C1.5,4,1,4,0.7,3.7
		c-0.3-0.3-0.3-0.7,0-1l2-2c0.3-0.3,0.8-0.3,1.1,0C4,1,4,1.5,3.8,1.8L1.8,3.8z"/>
</g>
</svg>
