<?xml version="1.0" encoding="utf-8"?>
<!-- Generator: Adobe Illustrator 23.0.5, SVG Export Plug-In . SVG Version: 6.00 Build 0)  -->
<svg version="1.1" id="Layer_1" xmlns="http://www.w3.org/2000/svg" xmlns:xlink="http://www.w3.org/1999/xlink" x="0px" y="0px"
	 viewBox="0 0 20.9 20.3" style="enable-background:new 0 0 20.9 20.3;" xml:space="preserve">
<style type="text/css">
	.st0{fill:#FFFFFF;}
</style>
<g>
	<path class="st0" d="M2.1,18.6h6v-6h-6V18.6z M1.6,11.1h7c0.6,0,1,0.4,1,1v7c0,0.6-0.4,1-1,1h-7c-0.6,0-1-0.4-1-1v-7
		C0.6,11.6,1,11.1,1.6,11.1 M13.1,7.6h5.9l-3-5.6L13.1,7.6z M20.8,7.6C21,8.1,20.8,8.7,20.4,9c-0.1,0.1-0.3,0.1-0.5,0.1h-7.6
		c-0.6,0-1-0.5-1-1c0-0.2,0-0.3,0.1-0.5l3.8-7.1c0.3-0.5,0.9-0.7,1.4-0.4c0.2,0.1,0.3,0.2,0.4,0.4L20.8,7.6z M16.1,18.8
		c1.8,0,3.2-1.4,3.2-3.2c0-1.8-1.4-3.2-3.2-3.2h0c-1.8,0-3.2,1.4-3.2,3.2C12.9,17.4,14.3,18.8,16.1,18.8 M3.3,5.4l2,2L8.7,4
		c0.6-0.6,0.6-1.4,0-2s-1.4-0.6-2,0L5.3,3.4L3.9,2c-0.6-0.5-1.5-0.4-2,0.2C1.5,2.7,1.5,3.5,1.9,4L3.3,5.4z M1.2,5.4L0.9,5.1
		c-1.1-1.1-1.1-3,0-4.1C2-0.2,3.8-0.2,5,1l0.3,0.3L5.6,1c1.2-1.1,3-1,4.1,0.2c1,1.1,1,2.8,0,3.9L6,8.8c-0.4,0.4-1,0.4-1.4,0L1.2,5.4
		z M16.1,20.3c-2.6,0-4.7-2.1-4.7-4.7c0-2.6,2.1-4.7,4.7-4.7s4.7,2.1,4.7,4.7C20.8,18.2,18.7,20.3,16.1,20.3"/>
</g>
</svg>
