<?xml version="1.0" encoding="utf-8"?>
<!-- Generator: Adobe Illustrator 23.0.5, SVG Export Plug-In . SVG Version: 6.00 Build 0)  -->
<svg version="1.1" id="Layer_1" xmlns="http://www.w3.org/2000/svg" xmlns:xlink="http://www.w3.org/1999/xlink" x="0px" y="0px"
	 viewBox="0 0 18 18" style="enable-background:new 0 0 18 18;" xml:space="preserve">
<style type="text/css">
	.st0{fill-rule:evenodd;clip-rule:evenodd;fill:#FFFFFF;}
</style>
<g>
	<path class="st0" d="M5.8,2.4C5.6,2.4,5,2.7,5,3.1V12c-1.5-1-3.5-0.5-4.5,1c-1,1.5-0.5,3.5,1,4.5C3,18.5,5,18,6,16.5
		c0.3-0.5,0.5-1.1,0.5-1.7c0-0.1,0,0.1,0-0.1c0-0.1,0-0.4,0-0.4V3.9l10-2V9C15,8,13,8.5,12,10c-1,1.5-0.5,3.5,1,4.5
		c1.5,1,3.5,0.5,4.5-1c0.3-0.5,0.5-1.1,0.5-1.7c0-0.1,0,0.1,0-0.1c0-0.1,0-0.4,0-0.4l0-10.4C18,0.4,17.7,0,17.2,0L5.8,2.4z M5,14.8
		c0,1-0.7,1.8-1.7,1.8c-1,0-1.8-0.7-1.8-1.7c0,0,0-0.1,0-0.1c0-1,0.8-1.8,1.8-1.8C4.2,13,5,13.8,5,14.8L5,14.8z M16.5,11.8
		c0,1-0.8,1.8-1.8,1.8c-1,0-1.8-0.8-1.8-1.8c0-1,0.8-1.8,1.8-1.8C15.7,10,16.5,10.8,16.5,11.8"/>
</g>
</svg>
