<?xml version="1.0" encoding="utf-8"?>
<!-- Generator: Adobe Illustrator 23.0.5, SVG Export Plug-In . SVG Version: 6.00 Build 0)  -->
<svg version="1.1" id="Layer_1" xmlns="http://www.w3.org/2000/svg" xmlns:xlink="http://www.w3.org/1999/xlink" x="0px" y="0px"
	 viewBox="0 0 18 18" style="enable-background:new 0 0 18 18;" xml:space="preserve">
<style type="text/css">
	.st0{fill:#FFFFFF;}
</style>
<g>
	<path class="st0" d="M2,0h14c1.1,0,2,0.9,2,2v14c0,1.1-0.9,2-2,2H2c-1.1,0-2-0.9-2-2V2C0,0.9,0.9,0,2,0 M2,1.5
		C1.7,1.5,1.5,1.7,1.5,2v14c0,0.3,0.2,0.5,0.5,0.5h14c0.3,0,0.5-0.2,0.5-0.5V2c0-0.3-0.2-0.5-0.5-0.5H2z M7.8,11.6l3.1-4.1
		c0.7-0.9,1.9-1.1,2.8-0.4c0.2,0.1,0.3,0.3,0.4,0.4l4,5.3V16c0,1.1-0.9,2-2,2H2c-1.1,0-2-0.9-2-2v-0.1l3.8-5.2
		c0.7-0.9,1.9-1.1,2.8-0.4c0.2,0.1,0.3,0.3,0.4,0.4L7.8,11.6L7.8,11.6z M11.3,16.5H16c0.3,0,0.5-0.2,0.5-0.5v-2.7l-3.7-4.9
		c-0.2-0.2-0.5-0.3-0.7-0.1c0,0-0.1,0.1-0.1,0.1l-3.3,4.5L11.3,16.5L11.3,16.5z M5.8,11.5c-0.2-0.2-0.5-0.3-0.7-0.1
		c0,0-0.1,0.1-0.1,0.1l-3.4,4.7c0.1,0.1,0.2,0.2,0.4,0.2h7.5L5.8,11.5z M5.5,7C4.7,7,4,6.3,4,5.5C4,4.7,4.7,4,5.5,4S7,4.7,7,5.5
		C7,6.3,6.3,7,5.5,7"/>
</g>
</svg>
