<?xml version="1.0" encoding="utf-8"?>
<!-- Generator: Adobe Illustrator 23.0.5, SVG Export Plug-In . SVG Version: 6.00 Build 0)  -->
<svg version="1.1" id="Layer_1" xmlns="http://www.w3.org/2000/svg" xmlns:xlink="http://www.w3.org/1999/xlink" x="0px" y="0px"
	 viewBox="0 0 16 16" style="enable-background:new 0 0 16 16;" xml:space="preserve">
<style type="text/css">
	.st0{fill-rule:evenodd;clip-rule:evenodd;fill:#FFFFFF;}
</style>
<g>
	<path class="st0" d="M14,1.5H8.7V14c0,0.3,0.2,0.5,0.5,0.5h2c0.4,0,0.8,0.3,0.8,0.8c0,0.4-0.3,0.8-0.8,0.8H4.7
		C4.3,16,4,15.7,4,15.2c0-0.4,0.3-0.8,0.8-0.8h2c0.3,0,0.5-0.2,0.5-0.5V1.5H2C1.7,1.5,1.5,1.7,1.5,2v1.3C1.5,3.7,1.2,4,0.7,4
		C0.3,4,0,3.7,0,3.2V1.5C0,0.7,0.7,0,1.5,0h13C15.3,0,16,0.7,16,1.5v1.8C16,3.7,15.7,4,15.2,4c-0.4,0-0.8-0.3-0.8-0.8V2
		C14.5,1.7,14.3,1.5,14,1.5"/>
</g>
</svg>
