<?xml version="1.0" encoding="utf-8"?>
<!-- Generator: Adobe Illustrator 23.0.5, SVG Export Plug-In . SVG Version: 6.00 Build 0)  -->
<svg version="1.1" id="Layer_1" xmlns="http://www.w3.org/2000/svg" xmlns:xlink="http://www.w3.org/1999/xlink" x="0px" y="0px"
	 viewBox="0 0 20.8 19" style="enable-background:new 0 0 20.8 19;" xml:space="preserve">
<style type="text/css">
	.st0{fill:#FFFFFF;}
</style>
<g>
	<path class="st0" d="M11.2,10.8v7.4c0,0.4-0.3,0.8-0.8,0.8c-0.4,0-0.8-0.3-0.8-0.8v-7.4L8,12.6c-0.3,0.3-0.8,0.3-1.1,0
		c-0.3-0.3-0.3-0.8,0-1.1c0,0,0,0,0,0l2.3-2.4c0.7-0.7,1.8-0.7,2.5,0l2.4,2.4c0.3,0.3,0.3,0.8,0,1.1c-0.3,0.3-0.8,0.3-1.1,0
		c0,0,0,0,0,0L11.2,10.8L11.2,10.8z M7.5,15v1.5H5.2v0c-3.1-0.2-5.4-2.9-5.2-6c0.1-2.1,1.5-4,3.5-4.8c0.2-3.3,3-5.8,6.4-5.6
		c2.9,0.2,5.2,2.4,5.6,5.2c3.1,0.1,5.5,2.8,5.4,5.9c-0.1,2.8-2.3,5.1-5.1,5.4v0h-2.3V15h1.9c2.3,0,4.1-1.9,4.1-4.2
		c0-2.3-1.9-4.1-4.2-4.1c-0.5,0-1,0.1-1.4,0.3c0.6-2.4-0.9-4.8-3.4-5.4c-0.3-0.1-0.7-0.1-1-0.1C7,1.5,5,3.5,5,6c0,0.3,0,0.5,0.1,0.8
		c-2.2,0.4-3.8,2.5-3.4,4.8c0.3,2,2,3.4,4,3.4v0H7.5z"/>
</g>
</svg>
